<?xml version="1.0" encoding="UTF-8" standalone="no"?>
<!-- Created with Inkscape (http://www.inkscape.org/) -->

<svg
   width="186.24463mm"
   height="95.786423mm"
   viewBox="0 0 186.24463 95.786423"
   version="1.1"
   id="svg13826"
   inkscape:version="1.2.1 (9c6d41e410, 2022-07-14)"
   sodipodi:docname="Workflow-Direct.svg"
   inkscape:export-filename="Workflow-Direct.svg"
   inkscape:export-xdpi="96"
   inkscape:export-ydpi="96"
   xmlns:inkscape="http://www.inkscape.org/namespaces/inkscape"
   xmlns:sodipodi="http://sodipodi.sourceforge.net/DTD/sodipodi-0.dtd"
   xmlns="http://www.w3.org/2000/svg"
   xmlns:svg="http://www.w3.org/2000/svg">
  <sodipodi:namedview
     id="namedview13828"
     pagecolor="#ffffff"
     bordercolor="#000000"
     borderopacity="0.25"
     inkscape:showpageshadow="2"
     inkscape:pageopacity="0.0"
     inkscape:pagecheckerboard="0"
     inkscape:deskcolor="#d1d1d1"
     inkscape:document-units="mm"
     showgrid="false"
     inkscape:zoom="0.80354938"
     inkscape:cx="96.447091"
     inkscape:cy="180.4494"
     inkscape:window-width="1815"
     inkscape:window-height="1057"
     inkscape:window-x="1177"
     inkscape:window-y="-8"
     inkscape:window-maximized="1"
     inkscape:current-layer="layer1" />
  <defs
     id="defs13823">
    <marker
       style="overflow:visible"
       id="marker4310-6-3"
       refX="0"
       refY="0"
       orient="auto-start-reverse"
       inkscape:stockid="TriangleStart"
       markerWidth="5.3244081"
       markerHeight="6.155385"
       viewBox="0 0 5.3244081 6.1553851"
       inkscape:isstock="true"
       inkscape:collect="always"
       preserveAspectRatio="xMidYMid">
      <path
         transform="scale(0.5)"
         style="fill:context-stroke;fill-rule:evenodd;stroke:context-stroke;stroke-width:1pt"
         d="M 5.77,0 -2.88,5 V -5 Z"
         id="path4308-7-2" />
    </marker>
    <clipPath
       clipPathUnits="userSpaceOnUse"
       id="clipPath338">
      <path
         d="M 0,1080 H 1920 V 0 H 0 Z"
         id="path336" />
    </clipPath>
    <clipPath
       clipPathUnits="userSpaceOnUse"
       id="clipPath358">
      <path
         d="m 676.506,567.54 h 11.071 v -11.07 h -11.071 z"
         id="path356" />
    </clipPath>
    <clipPath
       clipPathUnits="userSpaceOnUse"
       id="clipPath378">
      <path
         d="m 691.019,582.052 h 11.07 v -11.07 h -11.07 z"
         id="path376" />
    </clipPath>
    <clipPath
       clipPathUnits="userSpaceOnUse"
       id="clipPath398">
      <path
         d="m 691.019,553.028 h 11.07 v -11.071 h -11.07 z"
         id="path396" />
    </clipPath>
    <clipPath
       clipPathUnits="userSpaceOnUse"
       id="clipPath418">
      <path
         d="m 631.021,577.561 h 30.297 V 546.63 h -30.297 z"
         id="path416" />
    </clipPath>
  </defs>
  <g
     inkscape:label="Layer 1"
     inkscape:groupmode="layer"
     id="layer1"
     transform="translate(-12.078906,-100.60679)">
    <rect
       style="fill:#ffffff;fill-opacity:1;stroke:none;stroke-width:0.397697;stroke-dasharray:none;stroke-opacity:1"
       id="rect4721-7"
       width="186.24463"
       height="95.786423"
       x="12.078906"
       y="100.60679" />
    <g
       id="g12168"
       transform="matrix(0.37391008,0,0,-0.37391008,-115.83056,343.02206)">
      <g
         id="g12150">
        <path
           d="M 0,3.7500001e-8 C -3.749,-3.205 -7.982,-4.807 -12.698,-4.807 c -3.144,0 -6.107,0.756 -8.889,2.267 -2.781,1.512 -5.019,4.021 -6.712,7.529 l -5.079,10.339 c -1.572,2.661 -3.628,4.807 -6.168,6.44 -2.539,1.633 -5.321,2.449 -8.344,2.449 h -34.466 c -3.024,0 -5.805,-0.756 -8.345,-2.267 -2.54,-1.512 -4.535,-3.659 -5.986,-6.44 l -5.079,-10.521 c -1.694,-3.508 -3.931,-6.017 -6.712,-7.529 -2.782,-1.511 -5.745,-2.267 -8.889,-2.267 -4.596,0 -8.828,1.632 -12.698,4.89800004 C -133.935,3.356 -135.87,7.649 -135.87,12.97 c 0.363,2.661 0.544,4.233 0.544,4.717 l 15.238,60.769 c 1.088,4.596 3.447,8.315 7.075,11.157 3.628,2.841 7.8,4.263 12.516,4.263 h 70.747 c 4.716,0 8.859,-1.422 12.426,-4.263 3.568,-2.842 5.956,-6.561 7.165,-11.157 L 5.079,17.687 C 5.2,16.719 5.321,15.842 5.442,15.056 5.563,14.27 5.623,13.514 5.623,12.789 5.623,7.468 3.749,3.205 0,3.7500001e-8 M 9.614,15.782 C 9.493,16.689 9.312,17.626 9.07,18.594 L -6.168,79.545 c -1.451,5.321 -4.384,9.705 -8.798,13.151 -4.414,3.447 -9.342,5.17 -14.784,5.17 h -70.747 c -5.442,0 -10.37,-1.723 -14.784,-5.17 -4.414,-3.446 -7.347,-7.83 -8.798,-13.151 l -15.238,-60.951 c -0.242,-0.968 -0.393,-1.905 -0.453,-2.812 -0.061,-0.907 -0.091,-1.784 -0.091,-2.63 0,-5.926 2.086,-11.066 6.259,-15.42 4.172,-4.353 9.402,-6.53 15.691,-6.53 4.232,0 8.133,1.119 11.7,3.356 3.568,2.237 6.259,5.23000004 8.073,8.979 l 5.26,10.703 c 0.847,1.693 2.207,3.114 4.082,4.263 1.874,1.149 4.021,1.723 6.44,1.723 h 34.466 c 2.419,0 4.565,-0.574 6.44,-1.723 1.874,-1.149 3.235,-2.57 4.081,-4.263 l 5.261,-10.703 c 1.935,-3.74899996 4.656,-6.742 8.163,-8.979 3.507,-2.237 7.377,-3.356 11.61,-3.356 6.288,0 11.549,2.147 15.782,6.44 4.232,4.293 6.349,9.402 6.349,15.328 0,0.968 -0.061,1.905 -0.182,2.812"
           style="fill:#000000;fill-opacity:1;fill-rule:nonzero;stroke:none"
           id="path12136"
           transform="matrix(0.94348292,0,0,0.94348292,501.91466,484.88578)" />
        <path
           d="m 0,0 c -1.209,0 -2.268,0.453 -3.175,1.361 -0.907,0.907 -1.36,1.965 -1.36,3.174 0,1.209 0.453,2.268 1.36,3.175 C -2.268,8.617 -1.209,9.07 0,9.07 1.209,9.07 2.268,8.617 3.175,7.71 4.082,6.803 4.535,5.744 4.535,4.535 4.535,3.326 4.082,2.268 3.175,1.361 2.268,0.453 1.209,0 0,0"
           style="fill:#000000;fill-opacity:1;fill-rule:nonzero;stroke:none"
           id="path12138"
           transform="matrix(1.0807975,0,0,1.0807975,483.16301,528.09987)" />
        <path
           d="m 0,0 c -1.209,0 -2.268,0.453 -3.175,1.361 -0.907,0.907 -1.36,1.965 -1.36,3.174 0,1.209 0.453,2.268 1.36,3.175 C -2.268,8.617 -1.209,9.07 0,9.07 1.209,9.07 2.268,8.617 3.175,7.71 4.082,6.803 4.535,5.744 4.535,4.535 4.535,3.326 4.082,2.268 3.175,1.361 2.268,0.453 1.209,0 0,0"
           style="fill:none;fill-opacity:1;fill-rule:nonzero;stroke:#000000;stroke-opacity:1"
           id="path12140"
           transform="matrix(1.0807975,0,0,1.0807975,457.63562,528.09987)" />
        <path
           d="m 0,0 c -1.209,0 -2.268,0.453 -3.175,1.361 -0.907,0.907 -1.36,1.965 -1.36,3.174 0,1.209 0.453,2.268 1.36,3.175 C -2.268,8.617 -1.209,9.07 0,9.07 1.209,9.07 2.268,8.617 3.175,7.71 4.082,6.803 4.535,5.744 4.535,4.535 4.535,3.326 4.082,2.268 3.175,1.361 2.268,0.453 1.209,0 0,0"
           style="fill:none;fill-opacity:1;fill-rule:nonzero;stroke:#000000;stroke-opacity:1"
           id="path12142"
           transform="matrix(0,1.0807975,-1.0807975,0,475.30074,520.23759)" />
        <path
           d="m 0,0 c -1.209,0 -2.268,0.453 -3.175,1.361 -0.907,0.907 -1.36,1.965 -1.36,3.174 0,1.209 0.453,2.268 1.36,3.175 C -2.268,8.617 -1.209,9.07 0,9.07 1.209,9.07 2.268,8.617 3.175,7.71 4.082,6.803 4.535,5.744 4.535,4.535 4.535,3.326 4.082,2.268 3.175,1.361 2.268,0.453 1.209,0 0,0"
           style="fill:none;fill-opacity:1;fill-rule:nonzero;stroke:#000000;stroke-opacity:1"
           id="path12144"
           transform="matrix(0,1.0807975,-1.0807975,0,475.30074,545.76497)" />
        <path
           style="fill:none;fill-opacity:1;stroke:#000000;stroke-width:7.4171;stroke-linecap:round;stroke-dasharray:none;stroke-opacity:1"
           d="M 411.7197,545.43766 V 522.29224"
           id="path12146" />
        <path
           style="fill:none;fill-opacity:1;stroke:#000000;stroke-width:7.4171;stroke-linecap:round;stroke-dasharray:none;stroke-opacity:1"
           d="m 400.14699,533.86495 h 23.14542"
           id="path12148" />
      </g>
      <g
         id="g12166">
        <path
           d="M 0,3.7500001e-8 C -3.749,-3.205 -7.982,-4.807 -12.698,-4.807 c -3.144,0 -6.107,0.756 -8.889,2.267 -2.781,1.512 -5.019,4.021 -6.712,7.529 l -5.079,10.339 c -1.572,2.661 -3.628,4.807 -6.168,6.44 -2.539,1.633 -5.321,2.449 -8.344,2.449 h -34.466 c -3.024,0 -5.805,-0.756 -8.345,-2.267 -2.54,-1.512 -4.535,-3.659 -5.986,-6.44 l -5.079,-10.521 c -1.694,-3.508 -3.931,-6.017 -6.712,-7.529 -2.782,-1.511 -5.745,-2.267 -8.889,-2.267 -4.596,0 -8.828,1.632 -12.698,4.89800004 C -133.935,3.356 -135.87,7.649 -135.87,12.97 c 0.363,2.661 0.544,4.233 0.544,4.717 l 15.238,60.769 c 1.088,4.596 3.447,8.315 7.075,11.157 3.628,2.841 7.8,4.263 12.516,4.263 h 70.747 c 4.716,0 8.859,-1.422 12.426,-4.263 3.568,-2.842 5.956,-6.561 7.165,-11.157 L 5.079,17.687 C 5.2,16.719 5.321,15.842 5.442,15.056 5.563,14.27 5.623,13.514 5.623,12.789 5.623,7.468 3.749,3.205 0,3.7500001e-8 M 9.614,15.782 C 9.493,16.689 9.312,17.626 9.07,18.594 L -6.168,79.545 c -1.451,5.321 -4.384,9.705 -8.798,13.151 -4.414,3.447 -9.342,5.17 -14.784,5.17 h -70.747 c -5.442,0 -10.37,-1.723 -14.784,-5.17 -4.414,-3.446 -7.347,-7.83 -8.798,-13.151 l -15.238,-60.951 c -0.242,-0.968 -0.393,-1.905 -0.453,-2.812 -0.061,-0.907 -0.091,-1.784 -0.091,-2.63 0,-5.926 2.086,-11.066 6.259,-15.42 4.172,-4.353 9.402,-6.53 15.691,-6.53 4.232,0 8.133,1.119 11.7,3.356 3.568,2.237 6.259,5.23000004 8.073,8.979 l 5.26,10.703 c 0.847,1.693 2.207,3.114 4.082,4.263 1.874,1.149 4.021,1.723 6.44,1.723 h 34.466 c 2.419,0 4.565,-0.574 6.44,-1.723 1.874,-1.149 3.235,-2.57 4.081,-4.263 l 5.261,-10.703 c 1.935,-3.74899996 4.656,-6.742 8.163,-8.979 3.507,-2.237 7.377,-3.356 11.61,-3.356 6.288,0 11.549,2.147 15.782,6.44 4.232,4.293 6.349,9.402 6.349,15.328 0,0.968 -0.061,1.905 -0.182,2.812"
           style="fill:#000000;fill-opacity:1;fill-rule:nonzero;stroke:none"
           id="path12152"
           transform="matrix(0.94348292,0,0,0.94348292,501.91466,484.88578)" />
        <path
           d="m 0,0 c -1.209,0 -2.268,0.453 -3.175,1.361 -0.907,0.907 -1.36,1.965 -1.36,3.174 0,1.209 0.453,2.268 1.36,3.175 C -2.268,8.617 -1.209,9.07 0,9.07 1.209,9.07 2.268,8.617 3.175,7.71 4.082,6.803 4.535,5.744 4.535,4.535 4.535,3.326 4.082,2.268 3.175,1.361 2.268,0.453 1.209,0 0,0"
           style="fill:#000000;fill-opacity:1;fill-rule:nonzero;stroke:none"
           id="path12154"
           transform="matrix(1.0807975,0,0,1.0807975,483.16301,528.09987)" />
        <path
           d="m 0,0 c -1.209,0 -2.268,0.453 -3.175,1.361 -0.907,0.907 -1.36,1.965 -1.36,3.174 0,1.209 0.453,2.268 1.36,3.175 C -2.268,8.617 -1.209,9.07 0,9.07 1.209,9.07 2.268,8.617 3.175,7.71 4.082,6.803 4.535,5.744 4.535,4.535 4.535,3.326 4.082,2.268 3.175,1.361 2.268,0.453 1.209,0 0,0"
           style="fill:none;fill-opacity:1;fill-rule:nonzero;stroke:#000000;stroke-opacity:1"
           id="path12156"
           transform="matrix(1.0807975,0,0,1.0807975,457.63562,528.09987)" />
        <path
           d="m 0,0 c -1.209,0 -2.268,0.453 -3.175,1.361 -0.907,0.907 -1.36,1.965 -1.36,3.174 0,1.209 0.453,2.268 1.36,3.175 C -2.268,8.617 -1.209,9.07 0,9.07 1.209,9.07 2.268,8.617 3.175,7.71 4.082,6.803 4.535,5.744 4.535,4.535 4.535,3.326 4.082,2.268 3.175,1.361 2.268,0.453 1.209,0 0,0"
           style="fill:none;fill-opacity:1;fill-rule:nonzero;stroke:#000000;stroke-opacity:1"
           id="path12158"
           transform="matrix(0,1.0807975,-1.0807975,0,475.30074,520.23759)" />
        <path
           d="m 0,0 c -1.209,0 -2.268,0.453 -3.175,1.361 -0.907,0.907 -1.36,1.965 -1.36,3.174 0,1.209 0.453,2.268 1.36,3.175 C -2.268,8.617 -1.209,9.07 0,9.07 1.209,9.07 2.268,8.617 3.175,7.71 4.082,6.803 4.535,5.744 4.535,4.535 4.535,3.326 4.082,2.268 3.175,1.361 2.268,0.453 1.209,0 0,0"
           style="fill:none;fill-opacity:1;fill-rule:nonzero;stroke:#000000;stroke-opacity:1"
           id="path12160"
           transform="matrix(0,1.0807975,-1.0807975,0,475.30074,545.76497)" />
        <path
           style="fill:none;fill-opacity:1;stroke:#000000;stroke-width:7.4171;stroke-linecap:round;stroke-dasharray:none;stroke-opacity:1"
           d="M 411.7197,545.43766 V 522.29224"
           id="path12162" />
        <path
           style="fill:none;fill-opacity:1;stroke:#000000;stroke-width:7.4171;stroke-linecap:round;stroke-dasharray:none;stroke-opacity:1"
           d="m 400.14699,533.86495 h 23.14542"
           id="path12164" />
      </g>
    </g>
    <text
       xml:space="preserve"
       style="font-style:normal;font-variant:normal;font-weight:normal;font-stretch:normal;font-size:11.2889px;font-family:Consolas;-inkscape-font-specification:Consolas;direction:ltr;fill:#000000;stroke-width:0.264583"
       x="49.008606"
       y="188.06131"
       id="text12233"><tspan
         sodipodi:role="line"
         id="tspan12231"
         style="font-style:normal;font-variant:normal;font-weight:normal;font-stretch:normal;font-size:11.2889px;font-family:Inter, sans-serif;-inkscape-font-specification:'Inter, sans-serif';text-align:center;text-anchor:middle;stroke-width:0.264583"
         x="49.008606"
         y="188.06131">Device</tspan></text>
    <text
       xml:space="preserve"
       style="font-style:normal;font-variant:normal;font-weight:normal;font-stretch:normal;font-size:11.2889px;font-family:Consolas;-inkscape-font-specification:Consolas;direction:ltr;fill:#000000;stroke-width:0.264583"
       x="148.1606"
       y="188.06131"
       id="text12237"><tspan
         sodipodi:role="line"
         id="tspan12235"
         style="font-style:normal;font-variant:normal;font-weight:normal;font-stretch:normal;font-size:11.2889px;font-family:Inter, sans-serif;-inkscape-font-specification:'Inter, sans-serif';text-align:center;text-anchor:middle;stroke-width:0.264583"
         x="148.1606"
         y="188.06131">Your Script</tspan></text>
    <path
       style="fill:none;fill-opacity:1;stroke:#000000;stroke-width:1.05833;stroke-dasharray:none;stroke-opacity:1;marker-end:url(#marker4310-6-3)"
       d="M 85.828506,145.24276 H 102.56891"
       id="path12239" />
    <text
       xml:space="preserve"
       transform="scale(1.0023515,0.99765401)"
       style="font-variant:normal;font-weight:normal;font-stretch:normal;font-size:20.4787px;font-family:Inter;-inkscape-font-specification:Inter-Regular;writing-mode:lr-tb;fill:#000000;fill-opacity:1;fill-rule:nonzero;stroke:none;stroke-width:0.660604"
       id="text330"
       x="124.19518"
       y="139.01181"><tspan
         x="124.19518"
         sodipodi:role="line"
         id="tspan328"
         style="font-style:normal;font-variant:normal;font-weight:normal;font-stretch:normal;font-family:Inter, sans-serif;-inkscape-font-specification:'Inter, sans-serif';stroke-width:0.660604"
         y="139.01181">C#</tspan></text>
    <g
       id="g332"
       transform="matrix(0.35277777,0,0,-0.35277777,-184.55413,335.87035)">
      <g
         id="g334"
         clip-path="url(#clipPath338)">
        <g
           id="g340"
           transform="translate(1085.0841,463.6557)">
          <path
             d="m -213.16376,-0.11335201 c -2.71863,0 -4.99468,0.91198952 -6.82725,2.73596851 -1.83256,1.8230945 -2.74796,4.0884729 -2.74796,6.7943661 V 143.27068 c 0,2.70678 0.9154,4.97127 2.74796,6.79525 1.83257,1.82398 4.10862,2.73597 6.82725,2.73597 h 129.449296 c 1.418417,0 2.689306,-0.26537 3.811775,-0.79434 1.123359,-0.52986 2.157844,-1.20655 3.103456,-2.03008 l 21.811284,-21.70818 c 0.827411,-0.94118 1.507291,-1.97082 2.038754,-3.08892 0.532351,-1.11809 0.798082,-2.38302 0.798082,-3.79479 V 9.4169826 c 0,-2.7058932 -0.916284,-4.9712716 -2.747962,-6.7943661 -1.832568,-1.82397899 -4.108613,-2.73596851 -6.827247,-2.73596851 z"
             style="fill:none;stroke:#000000;stroke-width:1.7733;stroke-linecap:round;stroke-linejoin:round;stroke-miterlimit:10;stroke-dasharray:none;stroke-opacity:1"
             id="path342" />
        </g>
        <g
           id="g344"
           transform="translate(1264.8657,603.4042)">
          <path
             d="m -233.16752,-16.244814 h -23.59053 c -1.30022,0 -2.42358,0.47059 -3.36919,1.411771 -0.94561,0.94118 -1.41842,2.059274 -1.41842,3.353397 v 24.188509 c 0,0 2.20495,0.268024 5.48882,-3.0013388 3.28387,-3.2684784 21.28693,-21.1871702 21.28693,-21.1871702 0,0 1.60239,-1.632028 1.60239,-4.765168"
             style="fill:#000000;fill-opacity:1;fill-rule:nonzero;stroke:none;stroke-width:0.886648"
             id="path346" />
        </g>
        <g
           id="g348"
           transform="translate(1264.8657,603.4042)">
          <path
             d="m -233.16752,-16.244814 h -23.59053 c -1.30022,0 -2.42358,0.47059 -3.36919,1.411771 -0.94561,0.94118 -1.41842,2.059274 -1.41842,3.353397 v 24.188509 c 0,0 2.20495,0.268024 5.48882,-3.0013388 3.28387,-3.2684784 21.28693,-21.1871702 21.28693,-21.1871702 0,0 1.60239,-1.632028 1.60239,-4.765168 z"
             style="fill:none;stroke:#000000;stroke-width:1.7733;stroke-linecap:round;stroke-linejoin:round;stroke-miterlimit:10;stroke-dasharray:none;stroke-opacity:1"
             id="path350" />
        </g>
        <g
           id="g352">
          <g
             id="g354" />
          <g
             id="g370">
            <g
               clip-path="url(#clipPath358)"
               opacity="0.5"
               id="g368">
              <g
                 transform="translate(682.0415,557.4695)"
                 id="g362" />
              <g
                 transform="translate(682.0415,557.4695)"
                 id="g366" />
            </g>
          </g>
        </g>
        <g
           id="g372">
          <g
             id="g374" />
          <g
             id="g390">
            <g
               clip-path="url(#clipPath378)"
               opacity="0.5"
               id="g388">
              <g
                 transform="translate(696.5536,571.9818)"
                 id="g382" />
              <g
                 transform="translate(696.5536,571.9818)"
                 id="g386" />
            </g>
          </g>
        </g>
        <g
           id="g392">
          <g
             id="g394" />
          <g
             id="g410">
            <g
               clip-path="url(#clipPath398)"
               opacity="0.5"
               id="g408">
              <g
                 transform="translate(696.5536,542.9574)"
                 id="g402" />
              <g
                 transform="translate(696.5536,542.9574)"
                 id="g406" />
            </g>
          </g>
        </g>
        <g
           id="g412">
          <g
             id="g414" />
          <g
             id="g430">
            <g
               clip-path="url(#clipPath418)"
               opacity="0.5"
               id="g428">
              <g
                 transform="translate(645.7611,547.1296)"
                 id="g422" />
              <g
                 transform="translate(645.7611,547.1296)"
                 id="g426">
                <path
                   d="m 0,0 c -0.605,0 -1.119,0.212 -1.542,0.635 -0.423,0.423 -0.635,0.937 -0.635,1.542 v 10.521 h -10.521 c -0.605,0 -1.119,0.212 -1.542,0.635 -0.423,0.423 -0.635,0.937 -0.635,1.542 0,0.605 0.212,1.149 0.635,1.633 0.423,0.483 0.937,0.725 1.542,0.725 h 10.521 v 10.34 c 0,0.605 0.212,1.149 0.635,1.633 0.423,0.483 0.937,0.725 1.542,0.725 0.605,0 1.149,-0.242 1.633,-0.725 0.483,-0.484 0.725,-1.028 0.725,-1.633 v -10.34 h 10.34 c 0.605,0 1.149,-0.242 1.633,-0.725 0.484,-0.484 0.725,-1.028 0.725,-1.633 0,-0.605 -0.241,-1.119 -0.725,-1.542 -0.484,-0.423 -1.028,-0.635 -1.633,-0.635 H 2.358 V 2.177 C 2.358,1.572 2.116,1.058 1.633,0.635 1.149,0.212 0.605,0 0,0 Z"
                   style="fill:none;stroke:#ffffff;stroke-width:1;stroke-linecap:butt;stroke-linejoin:miter;stroke-miterlimit:10;stroke-dasharray:none;stroke-opacity:1"
                   id="path424" />
              </g>
            </g>
          </g>
        </g>
        <g
           id="g432"
           transform="translate(736.2807,502.9584)" />
        <g
           id="g436"
           transform="translate(736.2807,502.9584)" />
        <g
           id="g440"
           transform="translate(711.0658,557.4695)" />
        <g
           id="g444"
           transform="translate(711.0658,557.4695)" />
      </g>
    </g>
  </g>
</svg>
